<?xml version="1.0" encoding="UTF-8" standalone="no"?>
<!-- Created with Inkscape (http://www.inkscape.org/) -->

<svg
   xmlns:dc="http://purl.org/dc/elements/1.1/"
   xmlns:cc="http://creativecommons.org/ns#"
   xmlns:rdf="http://www.w3.org/1999/02/22-rdf-syntax-ns#"
   xmlns:svg="http://www.w3.org/2000/svg"
   xmlns="http://www.w3.org/2000/svg"
   xmlns:xlink="http://www.w3.org/1999/xlink"
   xmlns:sodipodi="http://sodipodi.sourceforge.net/DTD/sodipodi-0.dtd"
   xmlns:inkscape="http://www.inkscape.org/namespaces/inkscape"
   width="210mm"
   height="297mm"
   viewBox="0 0 210 297"
   version="1.1"
   id="svg8"
   inkscape:version="0.92.2 5c3e80d, 2017-08-06"
   sodipodi:docname="riffraff.svg"
   inkscape:export-filename="/Users/mendler/Downloads/riffraff.png"
   inkscape:export-xdpi="150"
   inkscape:export-ydpi="150">
  <defs
     id="defs2">
    <linearGradient
       inkscape:collect="always"
       id="linearGradient1513">
      <stop
         style="stop-color:#ffffff;stop-opacity:1;"
         offset="0"
         id="stop1509" />
      <stop
         style="stop-color:#e4e0d0;stop-opacity:1"
         offset="1"
         id="stop1511" />
    </linearGradient>
    <linearGradient
       id="linearGradient1507"
       inkscape:collect="always">
      <stop
         id="stop1501"
         offset="0"
         style="stop-color:#edd9af;stop-opacity:1" />
      <stop
         style="stop-color:#ddb96d;stop-opacity:1"
         offset="0.5"
         id="stop1503" />
      <stop
         id="stop1505"
         offset="1"
         style="stop-color:#efdcb6;stop-opacity:1" />
    </linearGradient>
    <linearGradient
       id="linearGradient1318"
       inkscape:collect="always">
      <stop
         style="stop-color:#d9b05a;stop-opacity:1"
         offset="0"
         id="stop1440" />
      <stop
         id="stop1442"
         offset="1"
         style="stop-color:#efdcb6;stop-opacity:1" />
    </linearGradient>
    <linearGradient
       id="linearGradient1403"
       inkscape:collect="always">
      <stop
         id="stop1397"
         offset="0"
         style="stop-color:#f5f556;stop-opacity:1;" />
      <stop
         style="stop-color:#f9f2a0;stop-opacity:1"
         offset="0.57703263"
         id="stop1399" />
      <stop
         id="stop1401"
         offset="1"
         style="stop-color:#f2d826;stop-opacity:1" />
    </linearGradient>
    <linearGradient
       inkscape:collect="always"
       id="linearGradient1358">
      <stop
         style="stop-color:#f5f556;stop-opacity:1;"
         offset="0"
         id="stop1354" />
      <stop
         id="stop1362"
         offset="0.5"
         style="stop-color:#f9f2a0;stop-opacity:1" />
      <stop
         style="stop-color:#f2d826;stop-opacity:1"
         offset="1"
         id="stop1356" />
    </linearGradient>
    <linearGradient
       inkscape:collect="always"
       id="linearGradient1318-7">
      <stop
         style="stop-color:#edd9af;stop-opacity:1"
         offset="0"
         id="stop1314" />
      <stop
         id="stop1322"
         offset="0.5"
         style="stop-color:#f3e6cb;stop-opacity:1;" />
      <stop
         style="stop-color:#efdcb6;stop-opacity:1"
         offset="1"
         id="stop1316" />
    </linearGradient>
    <linearGradient
       inkscape:collect="always"
       id="linearGradient1076">
      <stop
         style="stop-color:#ee0e0e;stop-opacity:1;"
         offset="0"
         id="stop1072" />
      <stop
         style="stop-color:#940909;stop-opacity:1"
         offset="1"
         id="stop1074" />
    </linearGradient>
    <linearGradient
       inkscape:collect="always"
       xlink:href="#linearGradient1076"
       id="linearGradient1078"
       x1="-132.2231"
       y1="48.301102"
       x2="-129.25037"
       y2="69.467773"
       gradientUnits="userSpaceOnUse"
       gradientTransform="matrix(0.95470277,0,0,0.95470277,-336.19305,-106.08286)" />
    <linearGradient
       inkscape:collect="always"
       xlink:href="#linearGradient1076"
       id="linearGradient1086"
       x1="-210.53935"
       y1="44.424328"
       x2="-186.59296"
       y2="44.424328"
       gradientUnits="userSpaceOnUse"
       gradientTransform="matrix(0.95470277,0,0,0.95470277,-328.97595,-106.80457)" />
    <linearGradient
       inkscape:collect="always"
       xlink:href="#linearGradient1318-7"
       id="linearGradient1320"
       x1="-94.790222"
       y1="117.79745"
       x2="-183.48842"
       y2="33.511761"
       gradientUnits="userSpaceOnUse"
       gradientTransform="matrix(0.99940607,0,0,1.0667535,-0.0850518,-12.246655)" />
    <linearGradient
       inkscape:collect="always"
       xlink:href="#linearGradient1403"
       id="linearGradient1360"
       x1="-79.289452"
       y1="17.213255"
       x2="-68.639351"
       y2="114.14926"
       gradientUnits="userSpaceOnUse"
       gradientTransform="matrix(3.7795276,0,0,3.7795276,-1268.812,-456.03922)" />
    <linearGradient
       inkscape:collect="always"
       xlink:href="#linearGradient1358"
       id="linearGradient1370"
       x1="-363.34622"
       y1="86.576782"
       x2="-342.25537"
       y2="86.576782"
       gradientUnits="userSpaceOnUse"
       gradientTransform="translate(-183.20254,-104.39595)" />
    <linearGradient
       inkscape:collect="always"
       xlink:href="#linearGradient1507"
       id="linearGradient1384"
       gradientUnits="userSpaceOnUse"
       gradientTransform="matrix(3.595778,0,0,4.0330941,-1266.2123,-502.43504)"
       x1="-151.63298"
       y1="66.519005"
       x2="-209.02469"
       y2="75.994675" />
    <linearGradient
       inkscape:collect="always"
       xlink:href="#linearGradient1318"
       id="linearGradient1436"
       x1="-1781.5955"
       y1="255.41777"
       x2="-1702.9629"
       y2="225.22786"
       gradientUnits="userSpaceOnUse" />
    <linearGradient
       inkscape:collect="always"
       xlink:href="#linearGradient1513"
       id="linearGradient1515"
       x1="-1663.4603"
       y1="258.78799"
       x2="-1752.0277"
       y2="171.0257"
       gradientUnits="userSpaceOnUse" />
  </defs>
  <sodipodi:namedview
     id="base"
     pagecolor="#ffffff"
     bordercolor="#666666"
     borderopacity="1.0"
     inkscape:pageopacity="0.0"
     inkscape:pageshadow="2"
     inkscape:zoom="0.20003524"
     inkscape:cx="-826.0961"
     inkscape:cy="1179.3396"
     inkscape:document-units="mm"
     inkscape:current-layer="layer1"
     showgrid="false"
     inkscape:snap-global="false"
     inkscape:window-width="1440"
     inkscape:window-height="855"
     inkscape:window-x="0"
     inkscape:window-y="1"
     inkscape:window-maximized="1"
     showguides="false"
     inkscape:measure-start="0,0"
     inkscape:measure-end="0,0">
    <sodipodi:guide
       position="-255.02626,279.7482"
       orientation="1,0"
       id="guide1312"
       inkscape:locked="false" />
  </sodipodi:namedview>
  <metadata
     id="metadata5">
    <rdf:RDF>
      <cc:Work
         rdf:about="">
        <dc:format>image/svg+xml</dc:format>
        <dc:type
           rdf:resource="http://purl.org/dc/dcmitype/StillImage" />
        <dc:title></dc:title>
      </cc:Work>
    </rdf:RDF>
  </metadata>
  <g
     inkscape:label="Layer 1"
     inkscape:groupmode="layer"
     id="layer1">
    <circle
       style="fill:#d50505;fill-opacity:1;stroke:#000000;stroke-width:4.12148142;stroke-linecap:square;stroke-linejoin:miter;stroke-miterlimit:4;stroke-dasharray:none;stroke-opacity:1"
       id="path1056"
       cx="-440.32303"
       cy="-121.08652"
       r="125.7768"
       transform="rotate(-14.61654)" />
    <path
       style="fill:#f10303;fill-opacity:1;stroke:none;stroke-width:4.07410955;stroke-linecap:square;stroke-linejoin:miter;stroke-miterlimit:4;stroke-dasharray:none;stroke-opacity:1"
       d="M -457.13401,-130.81854 A 123.75451,124.93962 0 0 0 -580.88857,-5.8788987 123.75451,124.93962 0 0 0 -578.48408,18.074886 122.75964,118.66206 0 0 1 -579.89403,0.90109399 122.75964,118.66206 0 0 1 -457.13401,-117.76109 122.75964,118.66206 0 0 1 -334.37454,0.90109399 122.75964,118.66206 0 0 1 -336.13481,20.083012 123.75451,124.93962 0 0 0 -333.37948,-5.8788987 123.75451,124.93962 0 0 0 -457.13401,-130.81854 Z"
       id="circle1497"
       inkscape:connector-curvature="0" />
    <path
       style="fill:#000000;fill-opacity:0.84834122;stroke:#000000;stroke-width:0.99999994px;stroke-linecap:butt;stroke-linejoin:miter;stroke-opacity:1"
       d="M -1725.8398 -498.25391 A 475.37689 475.37689 0 0 0 -1934.2832 -449.75195 L -1990.625 -405.61328 L -2034.4844 -337.94336 L -2035.4453 -337.80078 C -2043.7365 -305.38549 -2044.9692 -273.33751 -2041.9102 -242.08008 L -2046.541 -254.87109 C -2036.8571 -119.84963 -2046.3206 38.195665 -2066.4297 179.54883 L -2031.7266 10.058594 L -2030.2852 197.66992 C -2016.2354 134.44573 -1984.4241 56.859455 -1978.0254 -18.220703 C -1975.3114 -8.3161124 -1973.0919 1.2677955 -1971.5762 10.490234 C -1970.3138 37.667325 -1969.4379 74.844527 -1965.4297 112.80273 L -1983.0332 118.90625 C -1997.9035 216.71741 -1981.2504 305.88143 -1955.9297 392.96875 A 475.37689 475.37689 0 0 0 -1725.8398 452.5 A 475.37689 475.37689 0 0 0 -1424.0547 343.97461 C -1421.6722 330.28869 -1419.272 315.9389 -1416.8594 300.82031 C -1416.6349 299.4143 -1416.4102 297.98132 -1416.1855 296.5625 C -1415.2139 290.42429 -1414.2409 284.16386 -1413.2656 277.7832 C -1412.9587 275.77583 -1412.653 273.78782 -1412.3457 271.75586 C -1411.1477 263.82925 -1409.9479 255.77975 -1408.7461 247.47656 C -1386.792 95.793422 -1424.0932 25.328865 -1481.9316 -2.1582031 C -1484.7268 -51.502613 -1488.7101 -102.11103 -1494.3242 -150.46094 C -1485.5568 -177.20102 -1471.8343 -225.027 -1473.7363 -257.4668 L -1477.5488 -298.58203 L -1508.9043 -310.03516 L -1521.5137 -305.32422 C -1540.0154 -375.33732 -1565.8135 -423.37587 -1601.6895 -427.11133 C -1605.0389 -430.33806 -1608.4993 -433.4854 -1612.0977 -436.53125 C -1624.6838 -458.9012 -1636.405 -476.50611 -1650.125 -491.60742 A 475.37689 475.37689 0 0 0 -1725.8398 -498.25391 z M -1571.0098 -23.398438 C -1571.6712 -21.086418 -1572.3557 -18.74914 -1573.0469 -16.404297 C -1573.339 -16.385399 -1573.6316 -16.361791 -1573.9238 -16.341797 C -1572.9376 -18.689229 -1571.9682 -21.042047 -1571.0098 -23.398438 z "
       transform="scale(0.26458333)"
       id="path1524" />
    <path
       id="path1617"
       d="m -451.32061,-144.58342 a 125.7768,125.7768 0 0 0 -55.41564,11.63541 l -15.15651,11.35278 -11.9895,17.64887 -0.255,0.0322 c -2.37893,8.527039 -2.88867,16.997342 -2.25858,25.283131 l -1.15166,-3.410028 c 1.78792,35.771537 -1.621,77.5236582 -7.75022,114.799348 l 10.15089,-44.63492 -0.69373,49.635443 c 4.07874,-16.643638 12.93808,-36.98457592 15.06089,-56.808211 0.66115,2.635528 1.19334,5.183394 1.54143,7.631611 0.17821,7.1961534 0.19685,17.0353291 1.03963,27.099046 l -4.69148,1.513644 c -4.49394,25.787927 -0.59979,49.469126 5.59906,72.650647 a 125.7768,125.7768 0 0 0 60.52258,17.065659 125.7768,125.7768 0 0 0 80.45042,-26.977973 c 0.70861,-3.606569 1.42576,-7.388638 2.15059,-11.374002 0.0675,-0.370624 0.13515,-0.748385 0.20261,-1.122427 0.29218,-1.618118 0.58544,-3.268561 0.87997,-4.950794 0.0926,-0.529251 0.18531,-1.05329 0.27799,-1.589068 0.36266,-2.089834 0.72583,-4.212281 1.09133,-6.40176 6.67648,-39.997618 -2.78673,-58.8507253 -17.92872,-66.453056 -0.45663,-13.068668 -1.22032,-26.478496 -2.42833,-39.300245 2.4724,-7.023083 6.37634,-19.595441 6.05909,-28.187357 l -0.77289,-10.897705 -8.22858,-3.209263 -3.36243,1.173893 c -4.49293,-18.626023 -11.0418,-31.481063 -20.51037,-32.674743 -0.8675,-0.87274 -1.7648,-1.7251 -2.6992,-2.55141 -3.20112,-5.98945 -6.20076,-10.71348 -9.74345,-14.78672 a 125.7768,125.7768 0 0 0 -19.99009,-2.19198 z m 38.23488,126.496617 c -0.1882,0.607789 -0.38265,1.222129 -0.57892,1.838428 -0.0774,0.0033 -0.15491,0.0079 -0.23232,0.01151 0.27432,-0.615296 0.54423,-1.23211 0.81124,-1.849936 z"
       style="fill:#000000;fill-opacity:0.9905213;stroke:#000000;stroke-width:0.26458332px;stroke-linecap:butt;stroke-linejoin:miter;stroke-opacity:1"
       inkscape:connector-curvature="0" />
    <path
       style="fill:#000000;fill-opacity:1;stroke:#000000;stroke-width:0.99999994px;stroke-linecap:butt;stroke-linejoin:miter;stroke-opacity:1"
       d="M -1551.6309 -59.033203 C -1651.9252 -58.961997 -1764.3496 2.5664063 -1764.3496 2.5664062 L -1978.6367 76.853516 C -1996.4913 194.2942 -1968.9128 299.27223 -1935.4336 403.15234 A 475.37689 475.37689 0 0 0 -1725.8398 452.5 A 475.37689 475.37689 0 0 0 -1427.9688 347.41211 C -1420.2925 307.58725 -1412.3555 260.73761 -1404.3496 205.42383 C -1373.9032 -4.9333104 -1457.4149 -59.100105 -1551.6309 -59.033203 z "
       transform="scale(0.26458333)"
       id="path1031" />
    <path
       style="fill:#4b4b4b;fill-opacity:1;stroke:none;stroke-width:0.99999994px;stroke-linecap:butt;stroke-linejoin:miter;stroke-opacity:1"
       d="m -1551.6309,-59.033203 c -22.7034,0.01612 -46.0255,3.186237 -68.5273,8.074219 l -30.6973,50.56249962 48.1856,14.66406238 c 0,0 138.2679,-31.425111 150.8379,16.759766 29.4074,69.781006 26.8617,216.641686 31.873,272.662106 5.1381,-29.4058 10.3579,-61.98219 15.6094,-98.26562 30.4464,-210.3571396 -53.0653,-264.523935 -147.2813,-264.457033 z"
       transform="scale(0.26458333)"
       id="path1425"
       inkscape:connector-curvature="0"
       sodipodi:nodetypes="sccccccs" />
    <path
       style="fill:url(#linearGradient1515);fill-opacity:1;stroke:#000000;stroke-width:10.0724411;stroke-linecap:square;stroke-linejoin:miter;stroke-miterlimit:4;stroke-dasharray:none;stroke-opacity:1"
       d="m -1603.435,-5.3667215 -72.4654,74.7046125 -180,119.999999 -34.2851,-28.57227 -29.6458,29.68997 c 70.7445,52.72564 80.4956,170.35413 117.5774,255.29246 25.2479,4.30549 50.8024,6.56349 76.4141,6.75195 22.6843,-0.15903 45.3281,-1.94157 67.7578,-5.33398 14.4685,-129.18393 30.2143,-252.33754 39.3242,-269.25586 20,-37.14285 15.3228,-183.2768815 15.3228,-183.2768815 z"
       transform="scale(0.26458333)"
       id="path1029"
       inkscape:connector-curvature="0"
       sodipodi:nodetypes="cccccccccc" />
    <path
       style="fill:url(#linearGradient1436);fill-opacity:1;stroke:#000000;stroke-width:5.6692915;stroke-linecap:butt;stroke-linejoin:miter;stroke-miterlimit:4;stroke-dasharray:none;stroke-opacity:1"
       d="M -1678.7578 92.195312 L -1855.9004 189.33789 L -1767.5273 450.41406 A 475.37689 475.37689 0 0 0 -1725.8398 452.5 A 475.37689 475.37689 0 0 0 -1692.9238 451.33398 L -1678.7578 92.195312 z "
       transform="scale(0.26458333)"
       id="path1027" />
    <path
       style="fill:url(#linearGradient1370);fill-opacity:1;stroke:none;stroke-width:1.9457947;stroke-linecap:butt;stroke-linejoin:miter;stroke-miterlimit:4;stroke-dasharray:none;stroke-opacity:1"
       d="m -541.55707,-76.702204 c 2.5622,35.724432 1.2977,75.6811796 -4.0228,113.08087 l 9.18214,-44.8442804 0.38144,49.6391504 c 4.49367,-20.22163 11.516,-39.1789204 9.56545,-62.622661 z"
       id="path958"
       inkscape:connector-curvature="0"
       sodipodi:nodetypes="cccccc" />
    <path
       style="opacity:0.73699999;fill:#0a0702;fill-opacity:1;stroke:#000000;stroke-width:1.86500001;stroke-linecap:butt;stroke-linejoin:miter;stroke-miterlimit:4;stroke-dasharray:none;stroke-opacity:1"
       d="m -475.56853,49.701451 c 4.18138,3.39269 8.94758,7.0583 9.81025,12.76165 0.69454,3.78087 0.98922,7.62403 1.52936,11.42888 l -0.57214,-15.685718 -4.59558,-7.352926"
       id="path1197"
       inkscape:connector-curvature="0" />
    <path
       style="fill:url(#linearGradient1384);fill-opacity:1;stroke:#000000;stroke-width:9.96977329;stroke-linecap:butt;stroke-linejoin:miter;stroke-miterlimit:4;stroke-dasharray:none;stroke-opacity:1"
       d="m -1739.1562,-549.14062 c -16.9606,0.036 -35.5728,1.25114 -56.1211,3.08007 -51.4288,4.57747 -83.3405,14.53087 -118.0293,41.26758 l -72.9217,57.12645 -43.8596,67.67043 -0.9609,0.14257 c -33.6775,131.66579 48.9152,257.30318 63.8691,348.29102 3.0363,65.366319 3.7721,188.57267 51.4785,241.39453 l 4.9532,26.96289 107.7597,-2.6289 39.5469,-41.34571 c 202.0042,-135.906924 335.6658,-519.10656 155.7402,-671.40429 -15.6885,-27.88382 -30.0256,-48.37457 -48.5761,-65.82547 -23.0616,-5.04543 -52.5922,-4.79548 -82.8789,-4.73117 z"
       transform="scale(0.26458333)"
       id="path41"
       inkscape:connector-curvature="0"
       sodipodi:nodetypes="sscccccccccccs" />
    <path
       style="fill:#d4c39e;stroke:none;stroke-width:0.26458332px;stroke-linecap:butt;stroke-linejoin:miter;stroke-opacity:1;fill-opacity:1"
       d="m -448.63501,-8.7462309 -16.20099,-6.4992271 9.70174,-0.56515 7.34698,6.6876102 z"
       id="path1520"
       inkscape:connector-curvature="0" />
    <path
       style="fill:url(#linearGradient1360);fill-opacity:1;stroke:none;stroke-width:6.99212646;stroke-linecap:butt;stroke-linejoin:miter;stroke-miterlimit:4;stroke-dasharray:none;stroke-opacity:1"
       d="M -1600.9277 -469.39062 C -1612.2477 -469.27876 -1624.3675 -467.40162 -1637.3379 -463.58789 L -1632.4277 -448.4082 C -1632.297 -448.2625 -1632.1462 -448.16211 -1631.9551 -448.16211 C -1631.6675 -448.16211 -1632.1584 -449.2288 -1631.9551 -449.02539 C -1631.5002 -448.57052 -1631.669 -447.58649 -1631.0938 -447.29883 C -1630.7298 -447.11703 -1630.6373 -448.16211 -1630.2305 -448.16211 C -1628.4347 -448.16211 -1629.8829 -446.9513 -1629.3672 -446.43555 C -1629.1638 -446.23221 -1628.7073 -446.63889 -1628.5039 -446.43555 C -1628.3006 -446.23221 -1628.7915 -445.57422 -1628.5039 -445.57422 C -1628.0971 -445.57422 -1628.0474 -446.43555 -1627.6406 -446.43555 C -1627.0652 -446.43555 -1628.0474 -445.11777 -1627.6406 -444.71094 C -1627.4373 -444.5076 -1626.9808 -444.91428 -1626.7773 -444.71094 C -1626.7747 -444.70832 -1626.7741 -444.70199 -1626.7715 -444.69922 C -1626.5343 -445.67402 -1625.9141 -446.6963 -1625.9141 -442.98438 C -1625.9141 -442.65082 -1626.4883 -443.70213 -1626.6973 -443.87305 C -1626.7204 -443.85829 -1626.7454 -443.84766 -1626.7773 -443.84766 C -1626.7773 -439.4879 -1626.1155 -443.18386 -1625.0527 -442.12109 C -1624.8494 -441.91776 -1625.0527 -441.54547 -1625.0527 -441.25781 C -1625.0527 -440.97019 -1624.7651 -440.39453 -1625.0527 -440.39453 C -1625.0623 -440.39453 -1625.0659 -440.40574 -1625.0742 -440.4082 C -1625.1347 -438.4786 -1625.3012 -440.89311 -1624.1895 -438.66992 C -1624.0613 -438.41329 -1624.1895 -433.85326 -1624.1895 -433.49023 L -1624.1895 -423.13477 C -1623.9057 -423.13477 -1623.5454 -422.69791 -1623.3301 -422.26367 C -1623.3283 -422.26549 -1623.3279 -422.26974 -1623.3262 -422.27148 C -1623.1228 -422.47482 -1622.6663 -422.47482 -1622.4629 -422.27148 C -1622.0561 -421.86466 -1622.8697 -420.95369 -1622.4629 -420.54688 C -1622.0561 -420.14005 -1620.7363 -421.12222 -1620.7363 -420.54688 C -1620.7363 -419.90364 -1621.5996 -419.46359 -1621.5996 -418.82031 C -1621.5996 -418.41348 -1621.1431 -419.68359 -1620.7363 -419.68359 C -1620.3295 -419.68359 -1619.873 -419.22718 -1619.873 -418.82031 C -1619.4662 -418.82031 -1619.3755 -418.13894 -1619.0117 -417.95703 C -1618.7543 -417.82853 -1618.3519 -418.16037 -1618.1484 -417.95703 C -1617.9451 -417.75369 -1618.4361 -417.09375 -1618.1484 -417.09375 C -1618.2875 -417.2328 -1618.0198 -417.37265 -1617.7422 -417.51172 C -1617.5844 -417.80896 -1617.453 -418.12489 -1617.2852 -417.95703 C -1617.1366 -417.80844 -1617.4455 -417.66034 -1617.7422 -417.51172 C -1617.8548 -417.29957 -1617.979 -417.09375 -1618.1484 -417.09375 C -1617.7416 -416.68692 -1616.9365 -417.35114 -1616.4219 -417.09375 C -1616.1645 -416.96525 -1616.7095 -416.23047 -1616.4219 -416.23047 C -1616.015 -416.23047 -1615.9654 -417.09375 -1615.5586 -417.09375 C -1615.1518 -417.09375 -1614.8772 -416.59432 -1614.6953 -416.23047 C -1614.5664 -415.97308 -1614.9829 -415.36719 -1614.6953 -415.36719 C -1614.2885 -415.36719 -1614.2388 -416.23047 -1613.832 -416.23047 C -1613.5444 -416.23047 -1614.0354 -415.5706 -1613.832 -415.36719 C -1613.6287 -415.16385 -1613.1721 -415.57053 -1612.9688 -415.36719 C -1612.7654 -415.16385 -1613.2563 -414.50586 -1612.9688 -414.50586 C -1612.5619 -414.50586 -1612.4712 -415.18524 -1612.1074 -415.36719 C -1611.85 -415.49569 -1611.2441 -415.65481 -1611.2441 -415.36719 C -1611.2441 -414.96036 -1612.1074 -414.91269 -1612.1074 -414.50586 C -1612.1074 -414.21824 -1611.5318 -414.50586 -1611.2441 -414.50586 L -1610.3809 -414.50586 C -1610.0932 -414.50586 -1609.5176 -414.79348 -1609.5176 -414.50586 C -1609.5176 -414.50184 -1609.5214 -414.49627 -1609.5215 -414.49219 C -1609.1583 -414.5077 -1608.8091 -414.50586 -1608.6543 -414.50586 C -1608.3667 -414.50586 -1608.0483 -414.63436 -1607.791 -414.50586 C -1607.427 -414.32406 -1606.9277 -414.04941 -1606.9277 -413.64258 C -1606.9277 -413.23575 -1608.1978 -412.7793 -1607.791 -412.7793 C -1607.1477 -412.7793 -1606.7096 -413.64258 -1606.0664 -413.64258 C -1605.6595 -413.64258 -1606.7458 -413.14319 -1606.9277 -412.7793 C -1607.0411 -412.55253 -1606.9277 -409.77745 -1606.9277 -409.32617 L -1606.9277 -405.01172 C -1606.6401 -405.01172 -1606.9277 -404.4361 -1606.9277 -404.14844 C -1606.8097 -404.14844 -1606.8326 -404.02778 -1606.875 -403.88281 C -1606.8077 -403.59867 -1606.711 -403.28516 -1606.9277 -403.28516 C -1606.2531 -402.61051 -1605.4277 -404.03607 -1605.2031 -404.14844 C -1604.9457 -404.27694 -1604.6275 -404.14844 -1604.3398 -404.14844 L -1603.4766 -404.14844 L -1598.2988 -404.14844 L -1596.5723 -404.14844 C -1596.5723 -404.24822 -1596.4579 -404.23508 -1596.3223 -404.19922 C -1596.0345 -404.26605 -1595.709 -404.36932 -1595.709 -404.14844 C -1595.709 -403.96059 -1596.0669 -404.13171 -1596.3223 -404.19922 C -1596.4092 -404.17902 -1596.5055 -404.14844 -1596.5723 -404.14844 C -1596.5723 -403.74161 -1595.891 -403.64905 -1595.709 -403.28516 C -1595.4512 -402.7694 -1595.8707 -401.56055 -1596.5723 -401.56055 C -1596.2846 -401.56055 -1596.4438 -400.95458 -1596.5723 -400.69727 C -1596.5723 -400.65198 -1596.5809 -400.65009 -1596.5918 -400.66602 C -1596.7739 -400.30532 -1597.0399 -399.83398 -1597.4355 -399.83398 C -1597.3847 -399.78314 -1597.3777 -399.70372 -1597.3906 -399.61328 C -1597.4074 -399.68894 -1597.4355 -399.77506 -1597.4355 -399.83398 C -1597.4808 -399.83398 -1597.5159 -399.86046 -1597.5469 -399.89648 C -1598.1048 -400.2058 -1599.1621 -399.28666 -1599.1621 -398.9707 C -1599.1621 -398.56387 -1598.7056 -398.10742 -1598.2988 -398.10742 C -1598.2363 -398.10742 -1598.2045 -398.16781 -1598.1875 -398.25 C -1598.239 -398.49636 -1598.2988 -398.74565 -1598.2988 -398.9707 C -1598.2988 -399.19582 -1598.1263 -398.5458 -1598.1875 -398.25 C -1598.1074 -397.86653 -1598.0511 -397.49184 -1598.2988 -397.24414 C -1598.7056 -396.83731 -1599.5108 -397.50153 -1600.0254 -397.24414 C -1600.54 -396.98675 -1599.6186 -395.92636 -1600.0254 -395.51953 C -1600.554 -394.99089 -1602.2829 -394.78426 -1602.6133 -393.79297 C -1602.6552 -393.66729 -1602.6736 -393.53711 -1602.6836 -393.40625 L -1588.1562 -401.84766 L -1585.4922 -384.82422 C -1585.2299 -385.28583 -1585.5222 -385.79383 -1583.627 -385.16211 C -1581.656 -384.50511 -1584.1616 -383.43555 -1581.0391 -383.43555 C -1580.6323 -383.43555 -1580.5397 -384.11688 -1580.1758 -384.29883 C -1579.9184 -384.42733 -1579.6002 -384.29883 -1579.3125 -384.29883 L -1577.5859 -384.29883 L -1575.8594 -384.29883 C -1575.5718 -384.29883 -1575.2709 -384.38991 -1574.998 -384.29883 C -1574.3878 -384.09549 -1573.8818 -383.63896 -1573.2715 -383.43555 C -1572.7257 -383.25375 -1572.0595 -383.69293 -1571.5449 -383.43555 C -1571.5416 -383.43391 -1571.5365 -383.42941 -1571.5332 -383.42773 C -1571.4984 -383.79987 -1571.2572 -384.01106 -1570.6816 -383.43555 C -1570.5289 -383.2828 -1570.5969 -383.04055 -1570.6445 -382.80469 C -1570.6065 -382.72516 -1570.6103 -382.64558 -1570.6816 -382.57422 C -1570.5092 -382.57422 -1570.5405 -382.37026 -1570.5957 -382.14258 C -1570.5403 -381.91427 -1570.5088 -381.71094 -1570.6816 -381.71094 C -1570.5092 -381.71094 -1570.5405 -381.50698 -1570.5957 -381.2793 C -1570.5764 -381.19963 -1570.5746 -381.13692 -1570.5684 -381.07031 C -1570.1962 -381.76632 -1569.6999 -382.0662 -1570.6816 -379.12109 C -1570.8101 -378.73513 -1571.2572 -378.54547 -1571.5449 -378.25781 C -1571.8325 -377.68247 -1572.2522 -377.15725 -1572.4082 -376.5332 C -1572.5477 -375.97504 -1572.1508 -375.32124 -1572.4082 -374.80664 C -1573.5589 -372.50527 -1573.2715 -377.39541 -1573.2715 -373.94336 C -1573.2715 -373.36802 -1572.7569 -372.4741 -1573.2715 -372.2168 C -1573.8469 -371.92914 -1574.5432 -373.53493 -1574.998 -373.08008 C -1575.3615 -372.71671 -1574.888 -372.13 -1574.4492 -371.67383 C -1574.3725 -371.87553 -1574.2841 -372.06745 -1574.1348 -372.2168 C -1573.9314 -372.42022 -1573.9314 -371.1501 -1574.1348 -371.35352 C -1574.2263 -371.44499 -1574.3388 -371.55899 -1574.4492 -371.67383 C -1574.6061 -371.26124 -1574.6926 -370.79769 -1574.998 -370.49219 C -1575.2014 -370.28877 -1574.7947 -371.55693 -1574.998 -371.35352 C -1575.453 -370.89866 -1575.8594 -370.27216 -1575.8594 -369.62891 C -1575.8594 -369.34125 -1575.2014 -369.83232 -1574.998 -369.62891 C -1574.7947 -369.42549 -1574.7947 -368.96905 -1574.998 -368.76562 C -1575.453 -368.3108 -1576.435 -368.47769 -1576.7227 -367.90234 C -1576.9045 -367.53845 -1576.0414 -367.40294 -1575.8594 -367.03906 C -1575.7309 -366.78175 -1575.602 -366.30443 -1575.8594 -366.17578 C -1576.374 -365.91847 -1577.3286 -366.69038 -1577.5859 -366.17578 C -1577.8736 -365.60044 -1577.1775 -364.90602 -1576.7227 -364.45117 L -1576.7227 -365.3125 C -1576.7227 -365.60017 -1576.5193 -364.24776 -1576.7227 -364.45117 C -1576.5193 -364.24776 -1576.7227 -363.30023 -1576.7227 -363.58789 L -1576.7227 -364.45117 C -1576.926 -364.65459 -1577.3825 -364.65459 -1577.5859 -364.45117 C -1577.7893 -364.24776 -1577.5859 -363.87556 -1577.5859 -363.58789 L -1577.5859 -353.23047 L -1577.5859 -351.50586 C -1577.3826 -351.70927 -1576.9261 -351.70927 -1576.7227 -351.50586 C -1576.5193 -351.30245 -1576.926 -350.84599 -1576.7227 -350.64258 C -1576.5193 -350.43916 -1576.1471 -350.64258 -1575.8594 -350.64258 L -1570.6816 -350.64258 L -1568.957 -350.64258 C -1568.6694 -350.64258 -1568.0938 -350.93024 -1568.0938 -350.64258 C -1568.0938 -350.93024 -1567.5182 -350.64258 -1567.2305 -350.64258 C -1566.9428 -350.64258 -1566.3672 -350.93024 -1566.3672 -350.64258 C -1566.3672 -349.15684 -1566.7997 -349.21903 -1567.1133 -349.61719 C -1567.1118 -349.53941 -1567.1192 -349.45226 -1567.1445 -349.34766 C -1567.0894 -349.11998 -1567.058 -348.91602 -1567.2305 -348.91602 L -1567.2305 -346.32617 L -1567.2305 -344.60156 C -1567.1667 -344.66538 -1567.1777 -344.58861 -1567.2051 -344.47461 C -1567.1559 -344.17161 -1566.9767 -343.73828 -1567.2305 -343.73828 C -1567.4279 -343.73828 -1567.265 -344.22522 -1567.2051 -344.47461 C -1567.2116 -344.51506 -1567.2305 -344.56768 -1567.2305 -344.60156 C -1567.6854 -344.14672 -1567.639 -343.32985 -1568.0938 -342.875 C -1568.0938 -342.29966 -1567.8364 -341.66304 -1568.0938 -341.14844 C -1568.2222 -340.89113 -1568.957 -341.4361 -1568.957 -341.14844 C -1568.957 -340.74161 -1568.2756 -340.64903 -1568.0938 -340.28516 C -1567.9652 -340.02845 -1568.0938 -335.47046 -1568.0938 -335.10742 C -1568.0938 -334.53208 -1568.351 -333.89546 -1568.0938 -333.38086 C -1567.8364 -332.86626 -1566.3672 -333.9562 -1566.3672 -333.38086 C -1566.3672 -332.97403 -1567.2305 -332.92636 -1567.2305 -332.51953 C -1567.2305 -331.94419 -1565.5039 -333.09488 -1565.5039 -332.51953 C -1565.5039 -332.23525 -1565.5925 -331.95609 -1565.7207 -331.69141 C -1565.6474 -331.67694 -1565.5713 -331.65625 -1565.5039 -331.65625 L -1564.6406 -331.65625 C -1564.6406 -331.94391 -1563.4897 -331.65625 -1563.7773 -331.65625 L -1564.6406 -331.65625 C -1564.6406 -331.013 -1564.2321 -330.38453 -1563.7773 -329.92969 C -1563.574 -329.72627 -1563.9807 -330.58956 -1563.7773 -330.79297 C -1563.574 -330.99638 -1563.0426 -331.05028 -1562.9141 -330.79297 C -1562.7903 -330.54551 -1562.7899 -330.2697 -1562.8184 -329.98633 C -1562.5601 -330.14135 -1562.0527 -330.18573 -1562.0527 -329.92969 C -1562.0527 -329.56861 -1562.728 -329.48719 -1562.8809 -329.18945 L -1562.0527 -328.66406 L -1562.0527 -329.06641 C -1562.0527 -329.24001 -1561.9574 -328.89685 -1561.9375 -328.5918 L -1551.2656 -321.82617 C -1551.2656 -321.82617 -1508.6254 -222.5918 -1585.6973 -6.1269531 C -1591.1709 9.2462734 -1593.1479 32.303387 -1593.0938 58.556641 C -1588.9318 77.320946 -1582.6731 95.753127 -1584.1738 115.3125 C -1589.0684 138.67933 -1583.4187 160.76735 -1582.4121 184.06836 C -1582.7258 195.18203 -1580.6668 228.14892 -1572.5723 226.61719 C -1572.4937 225.92335 -1572.4129 225.26571 -1572.334 224.58203 C -1575.194 199.23917 -1570.6245 173.93704 -1561.8379 150.15625 C -1560.1293 143.83312 -1555.5032 130.32966 -1553.2012 130.77148 C -1553.1749 130.68302 -1553.1513 130.60033 -1553.125 130.51172 L -1553.125 130.78125 C -1552.2163 131.0846 -1551.6949 133.69528 -1551.9102 140.02344 C -1545.6249 161.54032 -1555.7974 185.18344 -1550.3555 205.22266 C -1544.2774 172.41533 -1540.8636 138.85059 -1536.5547 105.86719 C -1535.2697 96.289048 -1528.9943 129.36958 -1531.1895 136.89062 C -1532.1198 148.78321 -1534.0786 160.67189 -1535.2812 172.55469 L -1535.6387 202.41992 C -1535.1682 206.57007 -1534.422 210.71871 -1533.3184 214.86719 C -1531.2783 224.66075 -1532.661 233.57778 -1536.1094 241.81641 L -1536.5137 275.59375 L -1500.1211 148.75195 L -1504.291 256.79102 L -1489.8613 112.99414 L -1489.7754 112.69727 L -1472.5625 273.0625 C -1471.1837 255.90751 -1454.8598 -466.40866 -1600.9277 -469.39062 z M -1597.3906 -399.61133 C -1597.3256 -399.31803 -1597.2074 -398.9707 -1597.4355 -398.9707 C -1597.6508 -398.9707 -1597.4301 -399.34017 -1597.3906 -399.61133 z M -1570.6719 -380.85156 C -1570.676 -380.8513 -1570.6773 -380.84766 -1570.6816 -380.84766 C -1570.6816 -380.84345 -1570.6779 -380.83636 -1570.6777 -380.83203 C -1570.675 -380.83839 -1570.6747 -380.84522 -1570.6719 -380.85156 z M -1567.2285 -349.79297 C -1567.2286 -349.78927 -1567.2305 -349.78291 -1567.2305 -349.7793 C -1567.2246 -349.7793 -1567.2222 -349.77586 -1567.2168 -349.77539 C -1567.2205 -349.78159 -1567.2249 -349.7867 -1567.2285 -349.79297 z "
       transform="scale(0.26458333)"
       id="path956" />
    <path
       sodipodi:nodetypes="ccc"
       style="fill:none;stroke:#000000;stroke-width:2.354;stroke-linecap:butt;stroke-linejoin:miter;stroke-miterlimit:4;stroke-dasharray:none;stroke-opacity:1"
       d="m -421.96494,-58.899859 c -5.16255,8.679551 -14.18734,21.156324 -14.18734,21.156324 0,0 -1.1847,20.211013 0.0504,27.317912"
       id="path931"
       inkscape:connector-curvature="0" />
    <path
       style="fill:#292929;fill-opacity:0.12796212;stroke:none;stroke-width:0.15275493px;stroke-linecap:butt;stroke-linejoin:miter;stroke-opacity:1"
       d="m -422.60121,-56.637305 -12.63389,18.789499 -1.00579,26.120253 9.34769,-21.57013 z"
       id="path1018"
       inkscape:connector-curvature="0"
       sodipodi:nodetypes="ccccc" />
    <path
       style="fill:#0b0b01;fill-opacity:1;stroke:#000000;stroke-width:0.27111134px;stroke-linecap:butt;stroke-linejoin:miter;stroke-opacity:1"
       d="m -512.9535,0.41288558 c 11.74331,1.61480002 43.61517,1.54656002 61.42591,-8.52722998 7.56172,24.8625804 -37.67905,61.9572004 -51.8342,39.5575704 -5.56404,-8.80473 1.70508,-19.78537 -9.59171,-31.03034042 z"
       id="path60"
       inkscape:connector-curvature="0"
       sodipodi:nodetypes="ccsc" />
    <path
       inkscape:connector-curvature="0"
       style="fill:#faf4e7;fill-opacity:1;stroke:#000000;stroke-width:0.80000001;stroke-linecap:butt;stroke-linejoin:miter;stroke-miterlimit:4;stroke-dasharray:none;stroke-opacity:1"
       d="m -466.0734,-1.4546344 c -10.3644,2.71462 -19.52425,3.6224 -28.1601,3.74419 -0.46768,7.8049104 4.61986,9.6501704 10.1545,9.4534204 l 0.56022,-7.8479304 4.09685,7.2834704 c 2.16973,-0.41728 4.18108,-0.98543 5.69493,-1.4519304 6.32473,-1.94899 7.6536,-11.18122 7.6536,-11.18122 z"
       id="path1020"
       sodipodi:nodetypes="cccccsc" />
    <path
       style="fill:#faf4e7;fill-opacity:1;stroke:#000000;stroke-width:0.87099999;stroke-linecap:butt;stroke-linejoin:miter;stroke-miterlimit:4;stroke-dasharray:none;stroke-opacity:1"
       d="m -476.26862,29.414856 -11.61906,-3.0984 -3.09841,5.42222 -7.74604,-8.52064 -3.87303,1.5492 c 0,0 4.64763,25.56193 26.33654,4.64762 z"
       id="path1025"
       inkscape:connector-curvature="0" />
    <path
       style="fill:url(#linearGradient1078);fill-opacity:1;stroke:none;stroke-width:0.25259843px;stroke-linecap:butt;stroke-linejoin:miter;stroke-opacity:1"
       d="m -436.51071,-75.856293 c 0.24328,8.722755 -3.89025,17.708706 -11.21843,22.611683 -3.40326,2.293222 -7.57452,3.263537 -11.64102,3.012493 -5.46986,0.751552 -10.62662,-2.481292 -14.06885,-6.481514 -4.19531,-4.91545 -6.99912,-11.492085 -6.13429,-18.037383 0.43915,-3.169654 2.60697,-6.063873 5.69988,-7.060485 4.96219,-1.676128 10.28672,-0.830102 15.3938,-0.523161 2.50083,0.255797 5.01906,0.195665 7.52152,0.233274 4.51064,0.478729 9.37603,1.244441 12.91124,4.327155 0.60294,0.558624 1.13073,1.201775 1.53615,1.917938 z"
       id="path994"
       inkscape:connector-curvature="0" />
    <path
       style="fill:#fdfeff;fill-opacity:1;stroke:none;stroke-width:0.25259843px;stroke-linecap:butt;stroke-linejoin:miter;stroke-opacity:1"
       d="m -478.36988,-77.299711 c -2.19631,14.678324 18.05121,27.220382 29.32181,16.351748 5.36766,-4.701548 8.60572,-11.523108 9.65038,-18.516871 -11.36443,-2.530904 -22.0468,-6.425915 -38.97219,2.165123 z"
       id="path960"
       inkscape:connector-curvature="0"
       sodipodi:nodetypes="cccc" />
    <path
       style="fill:none;stroke:#000000;stroke-width:4.83556938;stroke-linecap:butt;stroke-linejoin:miter;stroke-miterlimit:4;stroke-dasharray:none;stroke-opacity:1"
       d="m -480.53501,-76.578001 c 10.75158,-4.359597 22.49059,-8.780058 34.18147,-5.467396 3.62515,0.875847 7.547,1.874002 10.56455,4.023981"
       id="path31"
       inkscape:connector-curvature="0" />
    <circle
       style="fill:#2c76c9;fill-opacity:0.94117647;stroke:none;stroke-width:20.82857704;stroke-linecap:round;stroke-linejoin:round;stroke-miterlimit:4;stroke-dasharray:none;stroke-opacity:1"
       id="path37"
       cx="-462.84467"
       cy="-72.018234"
       r="6.495388" />
    <path
       style="fill:url(#linearGradient1086);fill-opacity:1;stroke:none;stroke-width:0.25259843px;stroke-linecap:butt;stroke-linejoin:miter;stroke-opacity:1"
       d="m -507.95998,-72.969451 c 1.39737,5.541415 1.55061,12.385438 -2.90244,16.633423 -5.30505,3.430586 -14.02527,3.442738 -17.41036,-2.663248 -2.83459,-4.170917 -2.20743,-10.743087 2.581,-13.207899 4.76835,-2.892655 10.78041,-3.088825 16.09545,-1.926976 0.62252,0.25839 1.20416,0.641269 1.63635,1.1647 z"
       id="path1005"
       inkscape:connector-curvature="0" />
    <path
       style="fill:#ffffff;fill-opacity:1;stroke:none;stroke-width:0.25259843px;stroke-linecap:butt;stroke-linejoin:miter;stroke-opacity:1"
       d="m -507.95998,-74.867197 c 4.0604,12.822445 -14.39236,20.650156 -18.7086,12.399086 l -1.23977,-10.178163 4.45345,-3.377906 c 4.79628,-1.127058 11.3695,-2.498957 15.49492,1.156983 z"
       id="path974"
       inkscape:connector-curvature="0"
       sodipodi:nodetypes="ccccc" />
    <circle
       style="fill:#2c76c9;fill-opacity:0.94117647;stroke:none;stroke-width:23.86607742;stroke-linecap:round;stroke-linejoin:round;stroke-miterlimit:4;stroke-dasharray:none;stroke-opacity:1"
       id="path39"
       cx="-517.70306"
       cy="-68.278343"
       r="5.4128237" />
    <path
       style="fill:none;stroke:#000000;stroke-width:4.83556938;stroke-linecap:butt;stroke-linejoin:miter;stroke-miterlimit:4;stroke-dasharray:none;stroke-opacity:1"
       d="m -506.84185,-77.086313 c -6.29688,0.150613 -10.65826,-0.641587 -16.94238,-0.06118 -1.40293,0.525495 -4.11791,2.281644 -5.43063,2.947982"
       id="path33"
       inkscape:connector-curvature="0"
       sodipodi:nodetypes="ccc" />
    <path
       style="fill:#000000;fill-opacity:0.09478676;stroke:none;stroke-width:0.95470273px;stroke-linecap:butt;stroke-linejoin:miter;stroke-opacity:1"
       d="M -1873.1289 -245.59375 C -1876.5996 -222.11755 -1881.3291 -199.67256 -1886.4395 -178.49414 L -1918.8672 -57.666016 L -1909.4707 -51.300781 C -1903.3147 -42.444507 -1892.4048 -40.084297 -1880.1953 -41.966797 L -1873.5977 -40.623047 L -1845.3711 -51.806641 L -1823.5352 -74.175781 L -1825.2969 -76.179688 C -1842.6258 -116.28975 -1830.1645 -153.03421 -1869.7305 -168.34766 L -1874.1309 -224.36133 L -1874.582 -222.67773 L -1873.1289 -245.59375 z "
       transform="scale(0.26458333)"
       id="path1058" />
    <path
       style="fill:none;stroke:#000000;stroke-width:1.465;stroke-linecap:butt;stroke-linejoin:miter;stroke-miterlimit:4;stroke-dasharray:none;stroke-opacity:1"
       d="m -492.46495,-95.908617 c 0.8335,4.036048 -2.77044,7.157628 -3.18262,10.906432 0.99352,1.636253 3.72786,4.402369 5.45093,4.212602"
       id="path1151"
       inkscape:connector-curvature="0" />
    <path
       style="fill:none;stroke:#000000;stroke-width:1.965;stroke-linecap:butt;stroke-linejoin:miter;stroke-miterlimit:4;stroke-dasharray:none;stroke-opacity:1"
       d="m -431.31986,-96.559194 -1.5119,10.583333 7.55952,5.291667"
       id="path1170"
       inkscape:connector-curvature="0" />
    <path
       style="fill:none;stroke:#000000;stroke-width:1.70000005;stroke-linecap:butt;stroke-linejoin:miter;stroke-miterlimit:4;stroke-dasharray:none;stroke-opacity:1"
       d="m -470.74481,-15.70115 c 5.22015,-0.0148 10.44051,0.0328 15.66048,-0.0286 l 9.2859,8.3441294"
       id="path1176"
       inkscape:connector-curvature="0"
       sodipodi:nodetypes="ccc" />
    <g
       id="g1376"
       transform="translate(-330.88356,-120.66038)">
      <path
         sodipodi:nodetypes="ccccccc"
         inkscape:connector-curvature="0"
         id="path946"
         d="m -76.824552,35.611123 2.757877,-5.5356 6.882437,-2.571792 8.296295,3.030241 1.008369,10.878776 c 0.732206,12.488358 -7.28644,33.59538 -7.28644,33.59538 l -12.712419,3.75136"
         style="fill:#edd9af;fill-opacity:1;stroke:#000000;stroke-width:2.06774783;stroke-linecap:butt;stroke-linejoin:miter;stroke-miterlimit:4;stroke-dasharray:none;stroke-opacity:1" />
      <g
         transform="translate(2.6023088,4.2287518)"
         id="g1326">
        <path
           style="fill:none;stroke:#000000;stroke-width:2.06500006;stroke-linecap:butt;stroke-linejoin:miter;stroke-miterlimit:4;stroke-dasharray:none;stroke-opacity:1"
           d="m -78.619047,55.851189 c 1.479703,-5.136705 2.271091,-13.090965 9.071384,-13.607149"
           id="path1216"
           inkscape:connector-curvature="0" />
        <path
           style="fill:none;stroke:#000000;stroke-width:2.66499996;stroke-linecap:butt;stroke-linejoin:miter;stroke-miterlimit:4;stroke-dasharray:none;stroke-opacity:1"
           d="m -76.29392,48.243559 c 2.546221,0.196716 6.391294,-0.841888 7.559527,2.267876"
           id="path1238"
           inkscape:connector-curvature="0" />
      </g>
    </g>
    <ellipse
       style="fill:#23548b;fill-opacity:1;stroke:none;stroke-width:3.12847829;stroke-linecap:square;stroke-linejoin:miter;stroke-miterlimit:4;stroke-dasharray:none;stroke-opacity:1"
       id="path1305"
       cx="-462.84467"
       cy="-72.018234"
       rx="4.0095353"
       ry="4.391396" />
    <ellipse
       ry="3.7408187"
       rx="3.4155302"
       cy="-68.278343"
       cx="-517.70306"
       id="ellipse1307"
       style="fill:#23548b;fill-opacity:1;stroke:none;stroke-width:2.66499996;stroke-linecap:square;stroke-linejoin:miter;stroke-miterlimit:4;stroke-dasharray:none;stroke-opacity:1" />
    <path
       style="fill:#f3e5ca;stroke:#000000;stroke-width:2.865;stroke-linecap:butt;stroke-linejoin:miter;stroke-opacity:1;stroke-miterlimit:4;stroke-dasharray:none;fill-opacity:1"
       d="m -493.89082,-65.421451 -5.77731,38.327618 -4.36822,14.654677 6.05914,0.14091 16.20467,-8.595532"
       id="path1488"
       inkscape:connector-curvature="0" />
  </g>
</svg>
